<svg width="57" height="57" viewBox="0 0 57 57" fill="none" xmlns="http://www.w3.org/2000/svg">
<path d="M35.625 31.825C34.4675 30.8902 33.0011 30.424 31.5163 30.5188H21.375V40.8975H31.6825C33.1215 40.9397 34.5254 40.4492 35.625 39.52C36.1462 39.018 36.5553 38.4115 36.8255 37.7402C37.0956 37.0689 37.2207 36.3481 37.1925 35.625C37.2178 34.9164 37.091 34.2106 36.8206 33.5551C36.5502 32.8996 36.1425 32.3097 35.625 31.825V31.825ZM34.2 25.1275C34.6789 24.7008 35.0556 24.1719 35.3022 23.5799C35.5489 22.9879 35.6592 22.3479 35.625 21.7075C35.6949 21.061 35.618 20.407 35.4001 19.7943C35.1821 19.1816 34.8287 18.6259 34.3662 18.1687C33.35 17.4463 32.1204 17.0866 30.875 17.1475H21.375V26.315H30.875C32.1201 26.3394 33.3329 25.9182 34.295 25.1275H34.2ZM47.5 0H9.5C6.98044 0 4.56408 1.00089 2.78249 2.78249C1.00089 4.56408 0 6.98044 0 9.5V47.5C0 50.0196 1.00089 52.4359 2.78249 54.2175C4.56408 55.9991 6.98044 57 9.5 57H47.5C50.0196 57 52.4359 55.9991 54.2175 54.2175C55.9991 52.4359 57 50.0196 57 47.5V9.5C57 6.98044 55.9991 4.56408 54.2175 2.78249C52.4359 1.00089 50.0196 0 47.5 0V0ZM42.2987 40.0188C41.8398 41.1742 41.0866 42.1895 40.1137 42.9638C38.9832 43.8636 37.6827 44.526 36.29 44.9112C34.4944 45.4403 32.6277 45.6886 30.7563 45.6475H15.485V12.3975H31.635C34.1706 12.2712 36.6764 12.9895 38.76 14.44C39.6816 15.175 40.4099 16.1237 40.8817 17.2039C41.3535 18.2842 41.5546 19.4632 41.4675 20.6388C41.5554 22.1501 41.1738 23.6516 40.375 24.9375C39.4918 26.1795 38.2723 27.1435 36.86 27.7163C37.8036 27.8623 38.7091 28.1935 39.5243 28.6908C40.3395 29.188 41.0483 29.8415 41.61 30.6137C42.7123 32.288 43.2683 34.2629 43.2013 36.2663C43.1658 37.5664 42.8584 38.8447 42.2987 40.0188Z" fill="#42B883"/>
</svg>
