<svg width="57" height="57" viewBox="0 0 57 57" fill="none" xmlns="http://www.w3.org/2000/svg">
<rect width="56.7" height="56.7" rx="5" fill="#42B883"/>
<path d="M28.5 21C23.3047 21 19 25.0078 19 30C19 34.9922 23.2305 39 28.5 39C33.7695 39 38 34.9219 38 30C38 25.0781 33.6953 21 28.5 21ZM28.5 35.7656C25.1602 35.7656 22.4141 33.1641 22.4141 30C22.4141 26.8359 25.1602 24.2344 28.5 24.2344C31.8398 24.2344 34.5859 26.8359 34.5859 30C34.5859 33.1641 31.8398 35.7656 28.5 35.7656Z" fill="white"/>
<path d="M38 23C39.6569 23 41 21.8807 41 20.5C41 19.1193 39.6569 18 38 18C36.3431 18 35 19.1193 35 20.5C35 21.8807 36.3431 23 38 23Z" fill="white"/>
<path d="M44.0161 14.9758C42.0766 13.0161 39.3165 12 36.1835 12H20.8165C14.3266 12 10 16.2097 10 22.5242V37.4032C10 40.5242 11.0444 43.2097 13.1331 45.1694C15.1472 47.0565 17.8327 48 20.8911 48H36.1089C39.3165 48 42.002 46.9839 43.9415 45.1694C45.9556 43.2823 47 40.5968 47 37.4758V22.5242C47 19.4758 45.9556 16.8629 44.0161 14.9758ZM43.7177 37.4758C43.7177 39.7258 42.8972 41.5403 41.5544 42.7742C40.2117 44.0081 38.3468 44.6613 36.1089 44.6613H20.8911C18.6532 44.6613 16.7883 44.0081 15.4456 42.7742C14.1028 41.4677 13.4315 39.6532 13.4315 37.4032V22.5242C13.4315 20.3468 14.1028 18.5323 15.4456 17.2258C16.7137 15.9919 18.6532 15.3387 20.8911 15.3387H36.2581C38.496 15.3387 40.3609 15.9919 41.7036 17.2984C42.9718 18.6048 43.7177 20.4194 43.7177 22.5242V37.4758V37.4758Z" fill="white"/>
</svg>
