<svg width="57" height="57" viewBox="0 0 57 57" fill="none" xmlns="http://www.w3.org/2000/svg">
<path d="M50.8929 0H6.10714C2.73549 0 0 2.73549 0 6.10714V50.8929C0 54.2645 2.73549 57 6.10714 57H50.8929C54.2645 57 57 54.2645 57 50.8929V6.10714C57 2.73549 54.2645 0 50.8929 0ZM31.0192 44.4549C31.0192 50.0022 27.7621 52.5342 23.0163 52.5342C18.7286 52.5342 16.2475 50.3203 14.9752 47.6357L19.3393 45.002C20.179 46.4906 20.9424 47.7502 22.7873 47.7502C24.5431 47.7502 25.6627 47.0632 25.6627 44.3786V26.1717H31.0192V44.4549ZM43.6915 52.5342C38.7167 52.5342 35.4978 50.1676 33.9328 47.0632L38.2969 44.544C39.442 46.4143 40.9433 47.8011 43.577 47.8011C45.7908 47.8011 47.2158 46.6942 47.2158 45.1547C47.2158 43.3225 45.7654 42.6737 43.3098 41.5922L41.9739 41.0196C38.106 39.3783 35.5487 37.3045 35.5487 32.9404C35.5487 28.9199 38.615 25.8663 43.3862 25.8663C46.796 25.8663 49.2388 27.0496 50.9946 30.154L46.8214 32.8259C45.9054 31.1846 44.9129 30.5357 43.3734 30.5357C41.8085 30.5357 40.8161 31.5281 40.8161 32.8259C40.8161 34.429 41.8085 35.0779 44.1114 36.083L45.4473 36.6556C50.0022 38.6022 52.5596 40.5998 52.5596 45.0783C52.5596 49.8877 48.7681 52.5342 43.6915 52.5342Z" fill="#42B883"/>
</svg>
