<svg width="56" height="57" viewBox="0 0 56 57" fill="none" xmlns="http://www.w3.org/2000/svg">
<path d="M51.8599 0H4.13669C1.8525 0 0 1.82902 0 4.08322V52.9179C0 55.171 1.8525 57 4.13669 57H51.8599C54.1475 57 56 55.1698 56 52.9179V4.08322C56 1.82788 54.1464 0 51.8599 0ZM16.9739 47.7162H8.51585V21.9781H16.9739V47.7162ZM12.7455 18.4621H12.6888C9.85169 18.4621 8.01619 16.4853 8.01619 14.0156C8.01619 11.491 9.90835 9.56914 12.801 9.56914C15.6947 9.56914 17.4747 11.491 17.5314 14.0156C17.5314 16.4853 15.6936 18.4621 12.7455 18.4621ZM47.4739 47.7162H39.0159V33.9435C39.0159 30.4849 37.7922 28.1241 34.7319 28.1241C32.3956 28.1241 31.0042 29.7159 30.3913 31.2538C30.1681 31.8028 30.1137 32.5706 30.1137 33.3407V47.7151H21.6556C21.6556 47.7151 21.7666 24.3893 21.6556 21.9769H30.1137V25.6201C31.2376 23.8667 33.2476 21.3696 37.7378 21.3696C43.3021 21.3696 47.4751 25.0494 47.4751 32.9557L47.4739 47.7162Z" fill="#42B883"/>
</svg>
