<svg width="57" height="57" viewBox="0 0 57 57" fill="none" xmlns="http://www.w3.org/2000/svg">
<rect width="56.7" height="56.7" rx="5" fill="#42B883"/>
<path d="M47.2421 13.948L37.8656 8.2924C37.8234 8.26726 37.7765 8.25469 37.7312 8.23427C37.1108 7.86037 36.3091 7.92793 35.795 8.48092L22.6382 22.6529L15.387 15.9698C15.1534 15.7555 14.8608 15.6173 14.5476 15.5733C14.2343 15.5293 13.9152 15.5815 13.6321 15.7232L9.8643 17.6162C9.64732 17.7258 9.45868 17.8846 9.31332 18.0801C9.16796 18.2756 9.06987 18.5025 9.02681 18.7427C8.98375 18.9829 8.9969 19.2299 9.06523 19.4641C9.13356 19.6983 9.25518 19.9133 9.42048 20.0921L17.217 28.4907L9.42048 36.8892C9.25456 37.0677 9.13238 37.2827 9.06368 37.517C8.99498 37.7514 8.98165 37.9986 9.02475 38.239C9.06785 38.4795 9.16619 38.7065 9.31194 38.902C9.45769 39.0975 9.64683 39.256 9.8643 39.3651L13.6321 41.2597C13.9039 41.3969 14.2098 41.4512 14.5119 41.4157C14.8141 41.3803 15.0993 41.2567 15.3323 41.0602L22.957 34.6725L35.795 48.5004C35.941 48.6581 36.1178 48.7839 36.3144 48.8699C36.5109 48.9558 36.723 49.0001 36.9373 49C37.2272 48.9905 37.5088 48.8997 37.7499 48.7376C37.7875 48.7188 37.8281 48.7109 37.864 48.6889L47.2405 43.0334C47.4719 42.894 47.6635 42.6967 47.7966 42.4607C47.9297 42.2248 47.9998 41.9583 48 41.687V15.2943C47.9999 15.0232 47.9301 14.7568 47.7973 14.5209C47.6645 14.2849 47.4732 14.0876 47.2421 13.948ZM14.115 37.9889L13.132 37.4956L19.3533 30.7937L20.8192 32.3726L14.115 37.9889ZM35.498 43.5754L13.132 19.4857L14.0681 19.016L35.498 38.765V43.5754ZM35.498 34.5013L29.6237 29.0876L35.498 24.1673V34.5013ZM35.498 20.0764L27.2983 26.9448L24.9432 24.7737L35.498 13.406V20.0764ZM44.8745 40.7963L38.6235 44.5667V12.4131L44.8745 16.1835V40.7963Z" fill="white"/>
</svg>
