<svg width="56" height="56" viewBox="0 0 56 56" fill="none" xmlns="http://www.w3.org/2000/svg">
<path d="M50 0H6C2.6875 0 0 2.6875 0 6V50C0 53.3125 2.6875 56 6 56H50C53.3125 56 56 53.3125 56 50V6C56 2.6875 53.3125 0 50 0ZM34.6625 47.9625C33.6125 48.15 33.225 47.5 33.225 46.9625C33.225 46.2875 33.25 42.8375 33.25 40.05C33.25 38.1 32.6 36.8625 31.8375 36.2125C36.4625 35.7 41.3375 35.0625 41.3375 27.075C41.3375 24.8 40.525 23.6625 39.2 22.2C39.4125 21.6625 40.125 19.45 38.9875 16.575C37.25 16.0375 33.275 18.8125 33.275 18.8125C31.625 18.35 29.8375 18.1125 28.075 18.1125C26.3125 18.1125 24.525 18.35 22.875 18.8125C22.875 18.8125 18.9 16.0375 17.1625 16.575C16.025 19.4375 16.725 21.65 16.95 22.2C15.625 23.6625 15 24.8 15 27.075C15 35.025 19.6625 35.7 24.2875 36.2125C23.6875 36.75 23.15 37.675 22.9625 39C21.775 39.5375 18.7375 40.4625 16.925 37.2625C15.7875 35.2875 13.7375 35.125 13.7375 35.125C11.7125 35.1 13.6 36.4 13.6 36.4C14.95 37.025 15.9 39.425 15.9 39.425C17.1125 43.1375 22.9125 41.8875 22.9125 41.8875C22.9125 43.625 22.9375 46.45 22.9375 46.9625C22.9375 47.5 22.5625 48.15 21.5 47.9625C13.25 45.2 7.475 37.35 7.475 28.175C7.475 16.7 16.25 7.9875 27.725 7.9875C39.2 7.9875 48.5 16.7 48.5 28.175C48.5125 37.35 42.9125 45.2125 34.6625 47.9625ZM22.4 40.325C22.1625 40.375 21.9375 40.275 21.9125 40.1125C21.8875 39.925 22.05 39.7625 22.2875 39.7125C22.525 39.6875 22.75 39.7875 22.775 39.95C22.8125 40.1125 22.65 40.275 22.4 40.325ZM21.2125 40.2125C21.2125 40.375 21.025 40.5125 20.775 40.5125C20.5 40.5375 20.3125 40.4 20.3125 40.2125C20.3125 40.05 20.5 39.9125 20.75 39.9125C20.9875 39.8875 21.2125 40.025 21.2125 40.2125ZM19.5 40.075C19.45 40.2375 19.2 40.3125 18.9875 40.2375C18.75 40.1875 18.5875 40 18.6375 39.8375C18.6875 39.675 18.9375 39.6 19.15 39.65C19.4 39.725 19.5625 39.9125 19.5 40.075ZM17.9625 39.4C17.85 39.5375 17.6125 39.5125 17.425 39.325C17.2375 39.1625 17.1875 38.925 17.3125 38.8125C17.425 38.675 17.6625 38.7 17.85 38.8875C18.0125 39.05 18.075 39.3 17.9625 39.4ZM16.825 38.2625C16.7125 38.3375 16.5 38.2625 16.3625 38.075C16.225 37.8875 16.225 37.675 16.3625 37.5875C16.5 37.475 16.7125 37.5625 16.825 37.75C16.9625 37.9375 16.9625 38.1625 16.825 38.2625V38.2625ZM16.0125 37.05C15.9 37.1625 15.7125 37.1 15.575 36.975C15.4375 36.8125 15.4125 36.625 15.525 36.5375C15.6375 36.425 15.825 36.4875 15.9625 36.6125C16.1 36.775 16.125 36.9625 16.0125 37.05ZM15.175 36.125C15.125 36.2375 14.9625 36.2625 14.825 36.175C14.6625 36.1 14.5875 35.9625 14.6375 35.85C14.6875 35.775 14.825 35.7375 14.9875 35.8C15.15 35.8875 15.225 36.025 15.175 36.125Z" fill="#42B883"/>
</svg>
