<svg viewBox="0 0 56.693 56.693" xml:space="preserve" xmlns="http://www.w3.org/2000/svg"><path d="M29.019 33.741h3.755l-.353 3.959-3.402.92h-.004l-3.399-.92-.224-2.539h-3.065l.438 4.899 6.25 1.734.004-.002 6.253-1.732.836-9.368H24.991l-.279-3.123h11.674l.273-3.05H21.378l.824 9.222z" fill="#42b883" class="fill-000000"></path><path d="M28.347 5.157c-13.6 0-24.625 11.027-24.625 24.625 0 13.6 11.024 24.623 24.625 24.623 13.602 0 24.625-11.023 24.625-24.623 0-13.598-11.024-24.625-24.625-24.625zm6.875 7.603h1.551v3.107h2.18v1.531h-3.73V12.76zm-5.993 0h1.615l.994 1.629.994-1.629h1.617v4.639h-1.545V15.1l-1.066 1.648h-.025L30.745 15.1v2.299h-1.516V12.76zm-4.96 0h4.281v1.539h-1.367v3.1h-1.549v-3.1h-1.365V12.76zm-5.193 0h1.55v1.533h1.418V12.76h1.551v4.639h-1.551v-1.553h-1.418v1.553h-1.55V12.76zm19.902 31.548-9.965 2.764-9.954-2.766-2.218-24.872h24.355l-2.218 24.874z" fill="#42b883" class="fill-000000"></path></svg>