<svg viewBox="0 0 56.693 56.693" xml:space="preserve" xmlns="http://www.w3.org/2000/svg"><path d="M28.347 5.155c-13.6 0-24.625 11.025-24.625 24.625 0 13.602 11.025 24.625 24.625 24.625 13.598 0 24.623-11.023 24.623-24.625 0-13.599-11.026-24.625-24.623-24.625zm13.715 36.586c0 1.096-.91 1.982-2.031 1.982H16.613c-1.123 0-2.031-.887-2.031-1.982V18.052c0-1.094.908-1.982 2.031-1.982H40.03c1.121 0 2.031.889 2.031 1.982v23.689z" fill="#42b883" class="fill-000000"></path><path d="M33.099 26.441c-2.201 0-3.188 1.209-3.74 2.061v.041h-.027a.223.223 0 0 0 .027-.041v-1.768h-4.15c.055 1.17 0 12.484 0 12.484h4.15v-6.973c0-.375.027-.744.137-1.012.301-.744.984-1.52 2.129-1.52 1.504 0 2.104 1.146 2.104 2.824v6.68h4.15V32.06c-.001-3.836-2.05-5.619-4.78-5.619zM20.864 20.712c-1.419 0-2.349.934-2.349 2.159 0 1.197.9 2.158 2.294 2.158h.027c1.447 0 2.348-.961 2.348-2.158-.027-1.225-.9-2.159-2.32-2.159zM18.762 26.734h4.151v12.484h-4.151z" fill="#42b883" class="fill-000000"></path></svg>